<?xml version="1.0" encoding="UTF-8" standalone="no"?>
<!-- Created with Inkscape (http://www.inkscape.org/) -->

<svg
   xmlns:dc="http://purl.org/dc/elements/1.1/"
   xmlns:cc="http://creativecommons.org/ns#"
   xmlns:rdf="http://www.w3.org/1999/02/22-rdf-syntax-ns#"
   xmlns:svg="http://www.w3.org/2000/svg"
   xmlns="http://www.w3.org/2000/svg"
   xmlns:xlink="http://www.w3.org/1999/xlink"
   xmlns:sodipodi="http://sodipodi.sourceforge.net/DTD/sodipodi-0.dtd"
   xmlns:inkscape="http://www.inkscape.org/namespaces/inkscape"
   inkscape:version="0.91 r"
   version="1.1"
   id="svg2"
   viewBox="0 0 680.28074 491.43305"
   height="138.69333mm"
   width="191.99034mm"
   sodipodi:docname="joint1.svg">
  <sodipodi:namedview
     inkscape:snap-grids="true"
     inkscape:window-maximized="1"
     inkscape:window-y="24"
     inkscape:window-x="137"
     inkscape:window-height="1026"
     inkscape:window-width="1680"
     showgrid="false"
     inkscape:current-layer="layer5"
     inkscape:document-units="px"
     inkscape:cy="292.65179"
     inkscape:cx="422.43931"
     inkscape:zoom="0.7"
     inkscape:pageshadow="2"
     inkscape:pageopacity="0.0"
     borderopacity="1.0"
     bordercolor="#666666"
     pagecolor="#ffffff"
     id="base"
     fit-margin-top="5"
     fit-margin-left="5"
     fit-margin-right="5"
     fit-margin-bottom="5">
    <inkscape:grid
       type="xygrid"
       id="grid6841"
       originx="-19.150095"
       originy="-525.42631" />
  </sodipodi:namedview>
  <defs
     id="defs4">
    <inkscape:perspective
       sodipodi:type="inkscape:persp3d"
       inkscape:vp_x="0 : 526.18109 : 1"
       inkscape:vp_y="0 : 999.99999 : 0"
       inkscape:vp_z="744.09446 : 526.1811 : 1"
       inkscape:persp3d-origin="372.04723 : 350.7874 : 1"
       id="perspective6804" />
    <linearGradient
       inkscape:collect="always"
       id="linearGradient6779">
      <stop
         id="stop6783"
         offset="0"
         style="stop-color:#0000ff;stop-opacity:0;" />
      <stop
         id="stop6781"
         offset="1"
         style="stop-color:#0000ff;stop-opacity:1;" />
    </linearGradient>
    <linearGradient
       inkscape:collect="always"
       id="linearGradient6771">
      <stop
         style="stop-color:#ff0000;stop-opacity:1;"
         offset="0"
         id="stop6773" />
      <stop
         style="stop-color:#ff0000;stop-opacity:0;"
         offset="1"
         id="stop6775" />
    </linearGradient>
    <clipPath
       id="clipPath">
      <rect
         y="142.36218"
         x="207.14285"
         height="297.14285"
         width="532.85712"
         id="rect3499" />
    </clipPath>
    <clipPath
       id="clipPathd">
      <rect
         id="rect3518"
         width="542.85712"
         height="368.57144"
         x="115.71429"
         y="208.07646" />
    </clipPath>
    <clipPath
       id="clipPathn">
      <rect
         id="rect3566"
         width="600"
         height="400"
         x="74.285713"
         y="142.36218"
         style="fill:#ffffff;fill-opacity:1;stroke:#000000;stroke-opacity:1" />
    </clipPath>
    <linearGradient
       inkscape:collect="always"
       xlink:href="#linearGradient6771"
       id="linearGradient6777"
       x1="114.28571"
       y1="285.21936"
       x2="714.28571"
       y2="285.21936"
       gradientUnits="userSpaceOnUse"
       gradientTransform="translate(-34,-32)" />
    <linearGradient
       inkscape:collect="always"
       xlink:href="#linearGradient6779"
       id="linearGradient6785"
       x1="115.71429"
       y1="286.64789"
       x2="715.71429"
       y2="286.64789"
       gradientUnits="userSpaceOnUse"
       gradientTransform="translate(-34,-32)" />
  </defs>
  <metadata
     id="metadata7">
    <rdf:RDF>
      <cc:Work
         rdf:about="">
        <dc:format>image/svg+xml</dc:format>
        <dc:type
           rdf:resource="http://purl.org/dc/dcmitype/StillImage" />
        <dc:title />
      </cc:Work>
    </rdf:RDF>
  </metadata>
  <g
     id="layer1"
     inkscape:groupmode="layer"
     inkscape:label="Layer 1"
     transform="translate(-19.150095,-35.502817)" />
  <g
     inkscape:groupmode="layer"
     id="layer4"
     inkscape:label="Layer 4"
     transform="translate(-19.150095,-35.502817)">
    <rect
       style="opacity:0.5;fill:url(#linearGradient6777);fill-opacity:1;stroke:none;stroke-width:2;stroke-miterlimit:4;stroke-dasharray:none;stroke-opacity:1"
       id="rect6719-3"
       width="600"
       height="400"
       x="80.285713"
       y="53.219353" />
    <ellipse
       style="opacity:0.5;fill:#ff0000;fill-opacity:0.98039216;stroke:none;stroke-width:2;stroke-miterlimit:4;stroke-dasharray:none;stroke-opacity:1"
       id="path6737"
       cx="237.42856"
       cy="260.36218"
       rx="95.714287"
       ry="112.85714" />
    <ellipse
       style="opacity:0.5;fill:#ff0000;fill-opacity:0.98039216;stroke:none;stroke-width:2;stroke-miterlimit:4;stroke-dasharray:none;stroke-opacity:1"
       id="path6737-1"
       cx="237.42856"
       cy="259.46671"
       rx="52.857143"
       ry="62.324093" />
  </g>
  <g
     inkscape:groupmode="layer"
     id="layer3"
     inkscape:label="Layer 3"
     transform="translate(-19.150095,-35.502817)">
    <rect
       style="opacity:0.5;fill:url(#linearGradient6785);fill-opacity:1;stroke:none;stroke-width:2;stroke-miterlimit:4;stroke-dasharray:none;stroke-opacity:1"
       id="rect6719"
       width="600"
       height="400"
       x="81.714287"
       y="54.647888" />
    <ellipse
       style="opacity:0.5;fill:#0000ff;fill-opacity:0.98039216;stroke:none;stroke-width:2;stroke-miterlimit:4;stroke-dasharray:none;stroke-opacity:1"
       id="path6737-7"
       cx="517.42859"
       cy="268.93362"
       rx="95.714287"
       ry="112.85714" />
    <ellipse
       style="opacity:0.5;fill:#0000ff;fill-opacity:0.98039216;stroke:none;stroke-width:2;stroke-miterlimit:4;stroke-dasharray:none;stroke-opacity:1"
       id="path6737-1-2"
       cx="516.85712"
       cy="268.93362"
       rx="52.857143"
       ry="62.324093" />
  </g>
  <g
     inkscape:groupmode="layer"
     id="layer5"
     inkscape:label="Layer 5">
    <path
       style="fill:none;fill-rule:evenodd;stroke:#000000;stroke-width:3;stroke-linecap:butt;stroke-linejoin:miter;stroke-miterlimit:4;stroke-dasharray:18, 3;stroke-dashoffset:0;stroke-opacity:1"
       d="m 362.143,20.004199 0,397.142861"
       id="path4269"
       inkscape:connector-curvature="0" />
  </g>
  <g
     inkscape:groupmode="layer"
     id="layer2"
     inkscape:label="Layer 2"
     transform="translate(-19.150095,-35.502817)">
    <path
       id="path6682"
       title="0 0"
       d="m 81.87514,453.05849 598.83915,0 m -598.83915,0 0,-398.839145 m 0,398.839145 c 0,0 0,0 0,0 0,0 0,0 0,0 0,0 0,0 0,0 0,0 0,0 0,0 0,0 0,0 0,0 0,0 0,0 0,0 0,0 0,0 0,0 0,0 0,0 0,0 0,0 0,0 0,0 0,0 0,0 0,0 0,0 0,0 0,0 0,0 0,0 0,0 0,0 0,0 0,0 0,0 0,0 0,0 0,0 0,0 0,0 0,0 0,0 0,0 0,0 0,0 0,0 0,0 0,0 0,0 0,0 0,0 0,0 0,0 0,0 0,0 0,0 0,0 0,0 0,0 0,0 0,0 0,0 0,0 0,0 0,0 0,0 0,0 0,0 0,0 0,0 0,0 0,0 0,0 0,0 0,0 0,0 0,0 0,0 0,0 0,0 0,0 0,0 0,0 0,0 0,0 0,0 0,0 0,0 0,0 0,0 0,0 0,0 0,0 0,0 0,0 0,0 0,0 0,0 0,0 0,0 0,0 0,0 0,0 0,0 0,0 0,0 0,0 0,0 0,0 0,0 0,0 0,0 0,0 0,0 0,0 0,0 0,0 0,0 0,0 0,0 0,0 0,0 0,0 0,0 0,0 0,0 0,0 0,0 0,0 0,0 0,0 0,0 0,0 0,0 0,0 0,0 0,0 0,0 0,0 0,0 0,0 0,0 0,0 0,0 0,0 0,0 0,0 0,0 0,0 0,0 0,0 0,0 0,0 0,0 0,0 0,0 0,0 0,0 0,0 0,0 0,0 0,0 0,0 0,0 0,0 0,0 0,0 0,0 0,0 0,0 0,0 0,0 0,0 0,0 0,0 0,0 0,0 0,0 0,0 0,0 0,0 0,0 0,0 0,0 0,0 0,0 0,0 0,0 0,0 0,0 0,0 0,0 0,0 0,0 0,0 0,0 0,0 0,0 0,0 0,0 0,0 0,0 0,0 0,0 0,0 0,0 0,0 0,0 0,0 0,0 0,0 0,0 0,0 0,0 0,0 0,0 0,0 0,0 0,0 0,0 0,0 0,0 0,0 0,0 0,0 0,0 0,0 0,0 0,0 0,0 0,0 0,0 0,0 0,0 0,0 0,0 0,0 0,0 0,0 0,0 0,0 0,0 0,0 0,0 0,0 0,0 0,0 0,0 0,0 0,0 0,0 0,0 0,0 0,0 0,0 0,0 0,0 0,0 0,0 0,0 0,0 0,0 0,0 0,0 0,0 0,0 0,0 0,0 0,0 0,0 0,0 0,0 0,0 0,0 0,0 0,0 0,0 0,0 0,0 0,0 0,0 0,0 0,0 0,0 0,0 0,0 0,0 0,0 0,0 0,0 0,0 0,0 0,0 0,0 0,0"
       style="fill:#ffffff;fill-opacity:1;stroke:#000000;stroke-width:5;stroke-miterlimit:4;stroke-dasharray:none;stroke-opacity:1"
       inkscape:connector-curvature="0" />
    <text
       xml:space="preserve"
       style="font-style:normal;font-weight:normal;font-size:40px;line-height:125%;font-family:Sans;letter-spacing:0px;word-spacing:0px;fill:#000000;fill-opacity:1;stroke:none;stroke-width:1px;stroke-linecap:butt;stroke-linejoin:miter;stroke-opacity:1"
       x="388.57144"
       y="525.21936"
       id="text6806"
       sodipodi:linespacing="125%"><tspan
         sodipodi:role="line"
         id="tspan6808"
         x="388.57144"
         y="525.21936" /></text>
    <text
       xml:space="preserve"
       style="font-style:normal;font-weight:normal;font-size:40px;line-height:125%;font-family:Sans;letter-spacing:0px;word-spacing:0px;fill:#000000;fill-opacity:1;stroke:none;stroke-width:1px;stroke-linecap:butt;stroke-linejoin:miter;stroke-opacity:1"
       x="35.714287"
       y="262.36218"
       id="text6810"
       sodipodi:linespacing="125%"><tspan
         sodipodi:role="line"
         id="tspan6812"
         x="35.714287"
         y="262.36218">x<tspan
   style="font-size:64.99999762%;baseline-shift:sub"
   id="tspan6837">2</tspan></tspan></text>
    <text
       xml:space="preserve"
       style="font-style:normal;font-weight:normal;font-size:40px;line-height:125%;font-family:Sans;letter-spacing:0px;word-spacing:0px;fill:#000000;fill-opacity:1;stroke:none;stroke-width:1px;stroke-linecap:butt;stroke-linejoin:miter;stroke-opacity:1"
       x="356"
       y="501.21936"
       id="text6814"
       sodipodi:linespacing="125%"><tspan
         sodipodi:role="line"
         id="tspan6816"
         x="356"
         y="501.21936">x<tspan
   style="font-size:64.99999762%;baseline-shift:sub"
   id="tspan6839">1</tspan></tspan></text>
  </g>
</svg>
