<?xml version="1.0" encoding="UTF-8" standalone="no"?>
<!-- Created with Inkscape (http://www.inkscape.org/) -->

<svg
   xmlns:dc="http://purl.org/dc/elements/1.1/"
   xmlns:cc="http://creativecommons.org/ns#"
   xmlns:rdf="http://www.w3.org/1999/02/22-rdf-syntax-ns#"
   xmlns:svg="http://www.w3.org/2000/svg"
   xmlns="http://www.w3.org/2000/svg"
   xmlns:xlink="http://www.w3.org/1999/xlink"
   xmlns:sodipodi="http://sodipodi.sourceforge.net/DTD/sodipodi-0.dtd"
   xmlns:inkscape="http://www.inkscape.org/namespaces/inkscape"
   inkscape:version="0.91 r"
   version="1.1"
   id="svg2"
   viewBox="0 0 680.28074 491.43305"
   height="138.69333mm"
   width="191.99034mm"
   sodipodi:docname="posterior1.svg">
  <sodipodi:namedview
     inkscape:snap-grids="true"
     inkscape:window-maximized="1"
     inkscape:window-y="24"
     inkscape:window-x="137"
     inkscape:window-height="1026"
     inkscape:window-width="1680"
     showgrid="false"
     inkscape:current-layer="layer3"
     inkscape:document-units="px"
     inkscape:cy="363.64231"
     inkscape:cx="390.29646"
     inkscape:zoom="0.7"
     inkscape:pageshadow="2"
     inkscape:pageopacity="0.0"
     borderopacity="1.0"
     bordercolor="#666666"
     pagecolor="#ffffff"
     id="base"
     fit-margin-top="5"
     fit-margin-left="5"
     fit-margin-right="5"
     fit-margin-bottom="5">
    <inkscape:grid
       type="xygrid"
       id="grid6841"
       originx="-19.150095"
       originy="-525.42631" />
  </sodipodi:namedview>
  <defs
     id="defs4">
    <linearGradient
       id="linearGradient6676"
       inkscape:collect="always">
      <stop
         id="stop6678"
         offset="0"
         style="stop-color:#ff0000;stop-opacity:1" />
      <stop
         id="stop6680"
         offset="1"
         style="stop-color:#0000ff;stop-opacity:0.8" />
    </linearGradient>
    <linearGradient
       inkscape:collect="always"
       id="linearGradient6664">
      <stop
         style="stop-color:#ff0000;stop-opacity:1"
         offset="0"
         id="stop6666" />
      <stop
         style="stop-color:#0000ff;stop-opacity:0.5"
         offset="1"
         id="stop6668" />
    </linearGradient>
    <linearGradient
       id="linearGradient6547"
       inkscape:collect="always">
      <stop
         id="stop6549"
         offset="0"
         style="stop-color:#ff0000;stop-opacity:1" />
      <stop
         id="stop6551"
         offset="1"
         style="stop-color:#0000ff;stop-opacity:1" />
    </linearGradient>
    <linearGradient
       inkscape:collect="always"
       id="linearGradient6524">
      <stop
         style="stop-color:#000000;stop-opacity:1;"
         offset="0"
         id="stop6526" />
      <stop
         style="stop-color:#000000;stop-opacity:0;"
         offset="1"
         id="stop6528" />
    </linearGradient>
    <inkscape:perspective
       sodipodi:type="inkscape:persp3d"
       inkscape:vp_x="0 : 526.18109 : 1"
       inkscape:vp_y="0 : 999.99999 : 0"
       inkscape:vp_z="744.09446 : 526.1811 : 1"
       inkscape:persp3d-origin="372.04723 : 350.7874 : 1"
       id="perspective6804" />
    <clipPath
       id="clipPath">
      <rect
         y="142.36218"
         x="207.14285"
         height="297.14285"
         width="532.85712"
         id="rect3499" />
    </clipPath>
    <clipPath
       id="clipPathd">
      <rect
         id="rect3518"
         width="542.85712"
         height="368.57144"
         x="115.71429"
         y="208.07646" />
    </clipPath>
    <clipPath
       id="clipPathn">
      <rect
         id="rect3566"
         width="600"
         height="400"
         x="74.285713"
         y="142.36218"
         style="fill:#ffffff;fill-opacity:1;stroke:#000000;stroke-opacity:1" />
    </clipPath>
    <linearGradient
       inkscape:collect="always"
       xlink:href="#linearGradient6676"
       id="linearGradient6530"
       x1="24.913218"
       y1="337.66333"
       x2="128.15314"
       y2="522.1944"
       gradientUnits="userSpaceOnUse" />
    <linearGradient
       inkscape:collect="always"
       xlink:href="#linearGradient6664"
       id="linearGradient6532"
       x1="19.826006"
       y1="339.41745"
       x2="152.49176"
       y2="566.34412"
       gradientUnits="userSpaceOnUse" />
    <linearGradient
       inkscape:collect="always"
       xlink:href="#linearGradient6524"
       id="linearGradient6534"
       x1="81.714287"
       y1="254.64789"
       x2="681.71429"
       y2="254.64789"
       gradientUnits="userSpaceOnUse" />
    <linearGradient
       inkscape:collect="always"
       xlink:href="#linearGradient6524"
       id="linearGradient6540"
       x1="80.285713"
       y1="253.21935"
       x2="680.28571"
       y2="253.21935"
       gradientUnits="userSpaceOnUse" />
    <linearGradient
       inkscape:collect="always"
       xlink:href="#linearGradient6547"
       id="linearGradient6545"
       x1="57.142857"
       y1="211.43306"
       x2="657.14288"
       y2="211.43306"
       gradientUnits="userSpaceOnUse"
       gradientTransform="matrix(1,0,0,1.0035842,1.4285698,0.65794598)" />
    <linearGradient
       inkscape:collect="always"
       xlink:href="#linearGradient6547"
       id="linearGradient6654"
       x1="-140.99049"
       y1="366.28201"
       x2="-27.504194"
       y2="559.74347"
       gradientUnits="userSpaceOnUse" />
    <linearGradient
       inkscape:collect="always"
       xlink:href="#linearGradient6664"
       id="linearGradient6662"
       x1="-159.31912"
       y1="319.12903"
       x2="-23.796232"
       y2="551.00439"
       gradientUnits="userSpaceOnUse" />
  </defs>
  <metadata
     id="metadata7">
    <rdf:RDF>
      <cc:Work
         rdf:about="">
        <dc:format>image/svg+xml</dc:format>
        <dc:type
           rdf:resource="http://purl.org/dc/dcmitype/StillImage" />
        <dc:title></dc:title>
      </cc:Work>
    </rdf:RDF>
  </metadata>
  <g
     id="layer1"
     inkscape:groupmode="layer"
     inkscape:label="Layer 1"
     transform="translate(-19.150095,-35.502817)"
     style="display:inline" />
  <g
     inkscape:groupmode="layer"
     id="layer4"
     inkscape:label="Layer 4"
     transform="translate(-19.150095,-35.502817)"
     style="display:inline">
    <rect
       style="opacity:0;fill:url(#linearGradient6540);fill-opacity:1;stroke:none;stroke-width:2;stroke-miterlimit:4;stroke-dasharray:none;stroke-opacity:1"
       id="rect6719-3"
       width="600"
       height="400"
       x="80.285713"
       y="53.219353" />
    <ellipse
       style="opacity:0.5;fill:url(#linearGradient6662);fill-opacity:1;stroke:none;stroke-width:2;stroke-miterlimit:4;stroke-dasharray:none;stroke-opacity:1"
       id="path6737"
       cx="-106.40701"
       cy="416.42206"
       rx="95.714287"
       ry="112.85714"
       transform="matrix(0.5,-0.8660254,0.8660254,0.5,0,0)" />
    <ellipse
       style="opacity:0.8;fill:url(#linearGradient6654);fill-opacity:1;stroke:none;stroke-width:2;stroke-miterlimit:4;stroke-dasharray:none;stroke-opacity:1"
       id="path6737-1"
       cx="-105.6315"
       cy="415.9743"
       rx="52.857143"
       ry="62.324093"
       transform="matrix(0.5,-0.8660254,0.8660254,0.5,0,0)" />
  </g>
  <g
     inkscape:groupmode="layer"
     id="layer3"
     inkscape:label="Layer 3"
     transform="translate(-19.150095,-35.502817)"
     style="display:inline">
    <rect
       style="opacity:0;fill:url(#linearGradient6534);fill-opacity:1;stroke:none;stroke-width:2;stroke-miterlimit:4;stroke-dasharray:none;stroke-opacity:1"
       id="rect6719"
       width="600"
       height="400"
       x="81.714287"
       y="54.647888" />
    <ellipse
       style="opacity:0.5;fill:url(#linearGradient6532);fill-opacity:1;stroke:none;stroke-width:2;stroke-miterlimit:4;stroke-dasharray:none;stroke-opacity:1"
       id="path6737-7"
       cx="69.423103"
       cy="488.11157"
       rx="95.714287"
       ry="112.85714"
       transform="matrix(0.5,-0.8660254,0.8660254,0.5,0,0)" />
    <ellipse
       style="opacity:0.8;fill:url(#linearGradient6530);fill-opacity:1;stroke:none;stroke-width:2;stroke-miterlimit:4;stroke-dasharray:none;stroke-opacity:1"
       id="path6737-1-2"
       cx="68.871109"
       cy="487.96368"
       rx="52.857143"
       ry="62.324093"
       transform="matrix(0.5,-0.8660254,0.8660254,0.5,0,0)" />
  </g>
  <g
     inkscape:groupmode="layer"
     id="layer6"
     inkscape:label="Layer 6">
    <rect
       style="opacity:0.5;fill:url(#linearGradient6545);fill-opacity:1;stroke:none;stroke-width:5;stroke-miterlimit:4;stroke-dasharray:30, 5;stroke-dashoffset:0;stroke-opacity:1"
       id="rect6543"
       width="600"
       height="400"
       x="60"
       y="16.433056" />
  </g>
  <g
     inkscape:groupmode="layer"
     id="layer5"
     inkscape:label="Layer 5"
     style="display:inline">
    <path
       style="fill:none;fill-rule:evenodd;stroke:#ff00ff;stroke-width:5;stroke-linecap:butt;stroke-linejoin:miter;stroke-miterlimit:4;stroke-dasharray:30, 5;stroke-dashoffset:0;stroke-opacity:1"
       d="m 370,18.004487 0,397.142863"
       id="path4269-6"
       inkscape:connector-curvature="0" />
  </g>
  <g
     inkscape:groupmode="layer"
     id="layer2"
     inkscape:label="Layer 2"
     transform="translate(-19.150095,-35.502817)"
     style="display:inline">
    <path
       id="path6682"
       title="0 0"
       d="m 81.87514,453.05849 598.83915,0 m -598.83915,0 0,-398.839145 m 0,398.839145 c 0,0 0,0 0,0 0,0 0,0 0,0 0,0 0,0 0,0 0,0 0,0 0,0 0,0 0,0 0,0 0,0 0,0 0,0 0,0 0,0 0,0 0,0 0,0 0,0 0,0 0,0 0,0 0,0 0,0 0,0 0,0 0,0 0,0 0,0 0,0 0,0 0,0 0,0 0,0 0,0 0,0 0,0 0,0 0,0 0,0 0,0 0,0 0,0 0,0 0,0 0,0 0,0 0,0 0,0 0,0 0,0 0,0 0,0 0,0 0,0 0,0 0,0 0,0 0,0 0,0 0,0 0,0 0,0 0,0 0,0 0,0 0,0 0,0 0,0 0,0 0,0 0,0 0,0 0,0 0,0 0,0 0,0 0,0 0,0 0,0 0,0 0,0 0,0 0,0 0,0 0,0 0,0 0,0 0,0 0,0 0,0 0,0 0,0 0,0 0,0 0,0 0,0 0,0 0,0 0,0 0,0 0,0 0,0 0,0 0,0 0,0 0,0 0,0 0,0 0,0 0,0 0,0 0,0 0,0 0,0 0,0 0,0 0,0 0,0 0,0 0,0 0,0 0,0 0,0 0,0 0,0 0,0 0,0 0,0 0,0 0,0 0,0 0,0 0,0 0,0 0,0 0,0 0,0 0,0 0,0 0,0 0,0 0,0 0,0 0,0 0,0 0,0 0,0 0,0 0,0 0,0 0,0 0,0 0,0 0,0 0,0 0,0 0,0 0,0 0,0 0,0 0,0 0,0 0,0 0,0 0,0 0,0 0,0 0,0 0,0 0,0 0,0 0,0 0,0 0,0 0,0 0,0 0,0 0,0 0,0 0,0 0,0 0,0 0,0 0,0 0,0 0,0 0,0 0,0 0,0 0,0 0,0 0,0 0,0 0,0 0,0 0,0 0,0 0,0 0,0 0,0 0,0 0,0 0,0 0,0 0,0 0,0 0,0 0,0 0,0 0,0 0,0 0,0 0,0 0,0 0,0 0,0 0,0 0,0 0,0 0,0 0,0 0,0 0,0 0,0 0,0 0,0 0,0 0,0 0,0 0,0 0,0 0,0 0,0 0,0 0,0 0,0 0,0 0,0 0,0 0,0 0,0 0,0 0,0 0,0 0,0 0,0 0,0 0,0 0,0 0,0 0,0 0,0 0,0 0,0 0,0 0,0 0,0 0,0 0,0 0,0 0,0 0,0 0,0 0,0 0,0 0,0 0,0 0,0 0,0 0,0 0,0 0,0 0,0 0,0 0,0 0,0 0,0 0,0 0,0 0,0 0,0 0,0 0,0 0,0 0,0 0,0 0,0 0,0 0,0 0,0 0,0 0,0 0,0 0,0"
       style="fill:#ffffff;fill-opacity:1;stroke:#000000;stroke-width:5;stroke-miterlimit:4;stroke-dasharray:none;stroke-opacity:1"
       inkscape:connector-curvature="0" />
    <text
       xml:space="preserve"
       style="font-style:normal;font-weight:normal;font-size:40px;line-height:125%;font-family:Sans;letter-spacing:0px;word-spacing:0px;fill:#000000;fill-opacity:1;stroke:none;stroke-width:1px;stroke-linecap:butt;stroke-linejoin:miter;stroke-opacity:1"
       x="388.57144"
       y="525.21936"
       id="text6806"
       sodipodi:linespacing="125%"><tspan
         sodipodi:role="line"
         id="tspan6808"
         x="388.57144"
         y="525.21936" /></text>
    <text
       xml:space="preserve"
       style="font-style:normal;font-weight:normal;font-size:40px;line-height:125%;font-family:Sans;letter-spacing:0px;word-spacing:0px;fill:#000000;fill-opacity:1;stroke:none;stroke-width:1px;stroke-linecap:butt;stroke-linejoin:miter;stroke-opacity:1"
       x="35.714287"
       y="262.36218"
       id="text6810"
       sodipodi:linespacing="125%"><tspan
         sodipodi:role="line"
         id="tspan6812"
         x="35.714287"
         y="262.36218">x<tspan
   style="font-size:64.99999762%;baseline-shift:sub"
   id="tspan6837">2</tspan></tspan></text>
    <text
       xml:space="preserve"
       style="font-style:normal;font-weight:normal;font-size:40px;line-height:125%;font-family:Sans;letter-spacing:0px;word-spacing:0px;fill:#000000;fill-opacity:1;stroke:none;stroke-width:1px;stroke-linecap:butt;stroke-linejoin:miter;stroke-opacity:1"
       x="356"
       y="501.21936"
       id="text6814"
       sodipodi:linespacing="125%"><tspan
         sodipodi:role="line"
         id="tspan6816"
         x="356"
         y="501.21936">x<tspan
   style="font-size:64.99999762%;baseline-shift:sub"
   id="tspan6839">1</tspan></tspan></text>
  </g>
</svg>
